<svg id="svg" version="1.1" xmlns="http://www.w3.org/2000/svg" xmlns:xlink="http://www.w3.org/1999/xlink" width="89" height="89" viewBox="0, 0, 400,400"><g id="svgg"><path id="path0" d="M298.800 4.000 C 298.800 4.220,298.080 4.400,297.200 4.400 C 296.320 4.400,295.600 4.580,295.600 4.800 C 295.600 5.020,295.276 5.200,294.880 5.200 C 293.986 5.200,292.007 6.094,292.003 6.500 C 292.001 6.665,291.722 6.800,291.382 6.800 C 291.042 6.800,290.330 7.205,289.801 7.700 C 288.602 8.822,288.086 9.223,286.704 10.110 C 286.101 10.497,284.801 11.620,283.814 12.607 C 282.828 13.593,281.852 14.400,281.645 14.400 C 281.439 14.400,280.173 15.480,278.832 16.800 C 277.492 18.120,276.296 19.200,276.175 19.200 C 276.054 19.200,274.896 20.280,273.600 21.600 C 272.304 22.920,271.099 24.000,270.922 24.000 C 270.602 24.001,269.317 25.020,266.972 27.135 C 266.297 27.744,265.136 28.676,264.391 29.206 C 263.063 30.152,262.190 30.941,256.654 36.194 C 255.143 37.627,253.743 38.800,253.543 38.800 C 253.343 38.800,252.401 39.565,251.449 40.500 C 250.498 41.435,249.304 42.470,248.797 42.800 C 247.527 43.625,245.214 45.578,243.940 46.900 C 243.356 47.505,242.761 48.000,242.617 48.000 C 242.473 48.000,241.296 49.080,240.000 50.400 C 238.704 51.720,237.444 52.800,237.200 52.800 C 236.956 52.800,235.696 53.880,234.400 55.200 C 233.104 56.520,231.899 57.600,231.722 57.601 C 231.545 57.601,230.770 58.151,230.000 58.823 C 229.230 59.494,227.899 60.619,227.042 61.322 C 226.185 62.025,224.524 63.545,223.351 64.700 C 222.177 65.855,221.049 66.800,220.844 66.800 C 220.638 66.800,219.373 67.880,218.032 69.200 C 216.692 70.520,215.416 71.600,215.197 71.600 C 214.979 71.600,214.800 71.780,214.800 72.000 C 214.800 72.220,214.620 72.400,214.400 72.400 C 214.181 72.400,213.236 73.144,212.300 74.053 C 211.365 74.963,209.970 76.178,209.200 76.753 C 208.430 77.329,207.170 78.436,206.400 79.213 C 205.630 79.990,204.370 81.064,203.600 81.600 C 202.830 82.136,201.570 83.216,200.800 84.000 C 200.030 84.784,198.770 85.865,198.000 86.402 C 197.230 86.939,195.757 88.238,194.726 89.289 C 193.695 90.340,192.752 91.200,192.629 91.200 C 192.348 91.200,190.673 92.612,188.952 94.300 C 188.223 95.015,187.456 95.600,187.248 95.600 C 187.040 95.600,185.773 96.680,184.432 98.000 C 183.092 99.320,181.832 100.400,181.632 100.400 C 181.433 100.400,180.173 101.480,178.832 102.800 C 177.492 104.120,176.301 105.200,176.187 105.200 C 176.072 105.200,175.184 105.965,174.213 106.900 C 172.233 108.805,171.864 109.109,170.304 110.110 C 169.701 110.497,168.441 111.578,167.504 112.512 C 166.567 113.446,165.170 114.653,164.400 115.194 C 163.630 115.735,162.157 117.038,161.126 118.089 C 160.095 119.140,159.151 120.000,159.029 120.000 C 158.906 120.000,157.708 121.080,156.368 122.400 C 155.027 123.720,153.767 124.800,153.568 124.800 C 153.160 124.800,151.718 125.972,149.752 127.900 C 149.023 128.615,148.276 129.200,148.091 129.200 C 147.907 129.200,146.635 130.280,145.265 131.600 C 143.895 132.920,142.680 134.000,142.565 134.000 C 142.450 134.000,141.296 135.080,140.000 136.400 C 138.704 137.720,137.483 138.800,137.286 138.800 C 137.089 138.800,136.106 139.565,135.103 140.500 C 134.099 141.435,132.777 142.560,132.165 143.000 C 130.262 144.367,128.658 145.737,127.131 147.298 C 126.324 148.124,125.560 148.800,125.434 148.800 C 125.308 148.800,124.108 149.880,122.768 151.200 C 121.427 152.520,120.167 153.600,119.968 153.600 C 119.768 153.600,118.508 154.680,117.168 156.000 C 115.827 157.320,114.553 158.400,114.337 158.400 C 114.120 158.400,113.714 158.625,113.434 158.900 C 113.154 159.175,111.887 160.300,110.618 161.400 C 109.349 162.500,107.344 164.345,106.164 165.500 C 104.983 166.655,103.849 167.600,103.644 167.600 C 103.438 167.600,102.173 168.680,100.832 170.000 C 99.492 171.320,98.254 172.400,98.081 172.400 C 97.909 172.400,96.965 173.136,95.984 174.036 C 95.003 174.935,93.395 176.330,92.411 177.136 C 91.426 177.941,89.847 179.365,88.900 180.300 C 87.953 181.235,87.018 182.000,86.821 182.000 C 86.624 182.000,85.258 183.170,83.785 184.600 C 82.312 186.030,80.944 187.200,80.745 187.200 C 80.546 187.200,79.431 188.145,78.269 189.300 C 77.106 190.455,75.646 191.760,75.024 192.200 C 74.402 192.640,73.333 193.543,72.647 194.207 C 71.961 194.870,70.770 195.854,70.000 196.394 C 69.230 196.933,67.970 198.016,67.200 198.800 C 66.430 199.584,65.170 200.666,64.400 201.203 C 63.162 202.068,61.285 203.916,57.203 208.289 C 56.541 208.997,56.000 209.762,56.000 209.989 C 56.000 210.215,55.820 210.400,55.600 210.400 C 55.380 210.400,55.200 210.760,55.200 211.200 C 55.200 211.640,55.020 212.000,54.800 212.000 C 54.580 212.000,54.400 212.540,54.400 213.200 C 54.400 213.860,54.220 214.400,54.000 214.400 C 53.752 214.400,53.600 216.600,53.600 220.200 C 53.600 223.800,53.752 226.000,54.000 226.000 C 54.220 226.000,54.400 226.525,54.400 227.167 C 54.400 227.808,54.622 228.407,54.893 228.498 C 55.175 228.592,54.319 229.709,52.893 231.109 C 51.522 232.455,50.400 233.796,50.400 234.090 C 50.400 234.383,50.040 234.883,49.600 235.200 C 49.160 235.517,48.800 236.086,48.800 236.465 C 48.800 236.843,48.620 237.264,48.400 237.400 C 48.180 237.536,48.000 238.267,48.000 239.024 C 48.000 239.781,47.820 240.400,47.600 240.400 C 47.374 240.400,47.200 241.533,47.200 243.000 C 47.200 244.467,47.374 245.600,47.600 245.600 C 47.820 245.600,48.000 246.320,48.000 247.200 C 48.000 248.080,48.180 248.800,48.400 248.800 C 48.620 248.800,48.800 249.520,48.800 250.400 C 48.800 251.280,48.980 252.000,49.200 252.000 C 49.420 252.000,49.600 252.810,49.600 253.800 C 49.600 254.790,49.780 255.600,50.000 255.600 C 50.222 255.600,50.400 256.667,50.400 258.000 C 50.400 259.333,50.578 260.400,50.800 260.400 C 51.057 260.400,51.200 264.200,51.200 271.000 C 51.200 277.800,51.057 281.600,50.800 281.600 C 50.578 281.600,50.400 282.667,50.400 284.000 C 50.400 285.333,50.222 286.400,50.000 286.400 C 49.780 286.400,49.600 287.120,49.600 288.000 C 49.600 288.880,49.420 289.600,49.200 289.600 C 48.980 289.600,48.800 290.320,48.800 291.200 C 48.800 292.080,48.620 292.800,48.400 292.800 C 48.180 292.800,48.000 293.340,48.000 294.000 C 48.000 294.660,47.820 295.200,47.600 295.200 C 47.380 295.200,47.200 295.639,47.200 296.176 C 47.200 296.713,47.020 297.264,46.800 297.400 C 46.580 297.536,46.400 298.087,46.400 298.624 C 46.400 299.161,46.253 299.600,46.072 299.600 C 45.892 299.600,45.500 300.500,45.200 301.600 C 44.900 302.700,44.508 303.600,44.328 303.600 C 44.147 303.600,44.000 303.960,44.000 304.400 C 44.000 304.840,43.820 305.200,43.600 305.200 C 43.380 305.200,43.200 305.549,43.200 305.976 C 43.200 306.403,43.034 306.855,42.831 306.981 C 42.628 307.106,42.343 307.747,42.199 308.405 C 42.055 309.062,41.771 309.600,41.568 309.600 C 41.366 309.600,41.200 309.960,41.200 310.400 C 41.200 310.840,41.020 311.200,40.800 311.200 C 40.580 311.200,40.400 311.470,40.400 311.800 C 40.400 312.130,40.220 312.400,40.000 312.400 C 39.780 312.400,39.600 312.670,39.600 313.000 C 39.600 313.330,39.420 313.600,39.200 313.600 C 38.980 313.600,38.800 313.920,38.800 314.312 C 38.800 314.703,38.440 315.283,38.000 315.600 C 37.560 315.917,37.200 316.457,37.200 316.800 C 37.200 317.143,36.840 317.683,36.400 318.000 C 35.960 318.317,35.600 318.809,35.600 319.092 C 35.600 319.375,35.060 320.172,34.400 320.863 C 33.740 321.554,33.200 322.277,33.200 322.470 C 33.200 322.663,32.435 323.611,31.500 324.576 C 30.565 325.540,28.720 327.531,27.400 328.999 C 26.080 330.466,24.775 331.909,24.500 332.205 C 24.225 332.501,24.000 332.936,24.000 333.171 C 24.000 333.407,23.865 333.601,23.700 333.603 C 23.299 333.607,22.400 335.581,22.400 336.456 C 22.400 336.839,22.220 337.264,22.000 337.400 C 21.412 337.763,21.482 344.694,22.075 344.892 C 22.337 344.979,17.747 349.869,11.875 355.758 C 6.004 361.648,1.200 366.706,1.200 367.000 C 1.200 367.293,0.975 367.608,0.700 367.700 C -0.329 368.043,0.027 380.033,1.100 381.185 C 1.595 381.716,2.000 382.305,2.000 382.494 C 2.000 383.077,3.929 384.800,4.582 384.800 C 4.922 384.800,5.200 384.980,5.200 385.200 C 5.200 385.420,5.560 385.600,6.000 385.600 C 6.440 385.600,6.800 385.780,6.800 386.000 C 6.800 386.220,7.160 386.400,7.600 386.400 C 8.040 386.400,8.400 386.580,8.400 386.800 C 8.400 387.020,8.839 387.200,9.376 387.200 C 9.913 387.200,10.464 387.380,10.600 387.600 C 10.736 387.820,11.287 388.000,11.824 388.000 C 12.361 388.000,12.800 388.180,12.800 388.400 C 12.800 388.620,13.214 388.800,13.720 388.800 C 14.226 388.800,14.811 388.949,15.020 389.130 C 15.229 389.312,16.210 389.705,17.200 390.002 C 18.190 390.300,19.180 390.671,19.400 390.827 C 19.620 390.982,20.564 391.236,21.498 391.390 C 22.432 391.544,23.297 391.834,23.422 392.035 C 23.546 392.236,24.087 392.400,24.624 392.400 C 25.161 392.400,25.600 392.580,25.600 392.800 C 25.600 393.020,26.050 393.200,26.600 393.200 C 27.150 393.200,27.600 393.380,27.600 393.600 C 27.600 393.820,28.140 394.000,28.800 394.000 C 29.460 394.000,30.000 394.180,30.000 394.400 C 30.000 394.620,30.439 394.800,30.976 394.800 C 31.513 394.800,32.064 394.980,32.200 395.200 C 32.336 395.420,32.977 395.600,33.624 395.600 C 34.271 395.600,34.800 395.780,34.800 396.000 C 34.800 396.527,41.074 396.527,41.400 396.000 C 41.536 395.780,42.177 395.600,42.824 395.600 C 43.471 395.600,44.000 395.420,44.000 395.200 C 44.000 394.980,44.360 394.800,44.800 394.800 C 45.240 394.800,45.600 394.620,45.600 394.400 C 45.600 394.180,45.863 394.000,46.185 394.000 C 46.862 394.000,48.859 392.223,54.614 386.500 C 58.777 382.360,61.198 381.179,62.200 382.800 C 62.521 383.319,64.679 383.319,65.000 382.800 C 65.136 382.580,65.957 382.400,66.824 382.400 C 67.691 382.400,68.400 382.220,68.400 382.000 C 68.400 381.780,68.672 381.600,69.005 381.600 C 69.777 381.600,71.204 380.801,72.043 379.900 C 72.401 379.515,72.812 379.200,72.956 379.200 C 73.100 379.200,74.181 378.255,75.360 377.100 C 78.230 374.286,79.979 372.751,81.628 371.598 C 82.382 371.070,83.291 370.314,83.647 369.919 C 84.003 369.524,84.453 369.200,84.647 369.199 C 84.841 369.199,85.630 368.659,86.400 368.000 C 87.170 367.341,88.025 366.801,88.300 366.801 C 88.575 366.800,88.800 366.620,88.800 366.400 C 88.800 366.180,89.070 366.000,89.400 366.000 C 89.730 366.000,90.000 365.820,90.000 365.600 C 90.000 365.380,90.270 365.200,90.600 365.200 C 90.930 365.200,91.200 365.020,91.200 364.800 C 91.200 364.580,91.470 364.400,91.800 364.400 C 92.130 364.400,92.400 364.220,92.400 364.000 C 92.400 363.780,92.760 363.600,93.200 363.600 C 93.640 363.600,94.000 363.420,94.000 363.200 C 94.000 362.980,94.360 362.800,94.800 362.800 C 95.240 362.800,95.600 362.620,95.600 362.400 C 95.600 362.180,95.960 362.000,96.400 362.000 C 96.840 362.000,97.200 361.820,97.200 361.600 C 97.200 361.380,97.560 361.200,98.000 361.200 C 98.440 361.200,98.800 361.020,98.800 360.800 C 98.800 360.580,99.160 360.400,99.600 360.400 C 100.040 360.400,100.400 360.220,100.400 360.000 C 100.400 359.780,100.760 359.600,101.200 359.600 C 101.640 359.600,102.000 359.444,102.000 359.254 C 102.000 359.064,102.837 358.794,103.860 358.654 C 104.882 358.514,105.917 358.252,106.160 358.072 C 106.402 357.891,107.410 357.511,108.400 357.226 C 109.390 356.942,110.560 356.563,111.000 356.385 C 112.058 355.956,113.814 355.576,115.900 355.324 C 116.835 355.212,117.600 354.958,117.600 354.760 C 117.600 354.562,118.579 354.400,119.776 354.400 C 120.973 354.400,122.064 354.220,122.200 354.000 C 122.336 353.780,123.967 353.600,125.824 353.600 C 127.808 353.600,129.200 353.435,129.200 353.200 C 129.200 352.958,130.933 352.800,133.600 352.800 C 136.267 352.800,138.000 352.958,138.000 353.200 C 138.000 353.438,139.525 353.600,141.776 353.600 C 143.863 353.600,145.663 353.779,145.800 354.000 C 145.936 354.220,146.926 354.400,148.000 354.400 C 149.074 354.400,150.064 354.580,150.200 354.800 C 150.336 355.020,151.157 355.200,152.024 355.200 C 152.891 355.200,153.600 355.380,153.600 355.600 C 153.600 355.820,154.320 356.000,155.200 356.000 C 156.080 356.000,156.800 356.180,156.800 356.400 C 156.800 356.909,164.948 356.939,165.905 356.433 C 166.287 356.232,167.185 355.850,167.900 355.585 C 168.615 355.320,169.200 354.945,169.200 354.751 C 169.200 354.558,169.460 354.400,169.778 354.400 C 170.096 354.400,171.512 353.244,172.925 351.830 C 175.445 349.310,175.516 349.271,176.593 349.830 C 177.197 350.144,178.211 350.400,178.846 350.400 C 179.481 350.400,180.000 350.580,180.000 350.800 C 180.000 351.041,181.659 351.200,184.176 351.200 C 186.529 351.200,188.461 351.025,188.600 350.800 C 188.736 350.580,189.276 350.400,189.800 350.400 C 190.324 350.400,190.864 350.220,191.000 350.000 C 191.136 349.780,191.687 349.600,192.224 349.600 C 192.761 349.600,193.200 349.420,193.200 349.200 C 193.200 348.980,193.520 348.800,193.912 348.800 C 194.303 348.800,194.883 348.440,195.200 348.000 C 195.517 347.560,195.972 347.200,196.210 347.200 C 196.777 347.200,199.600 344.610,199.600 344.090 C 199.600 343.869,200.680 342.612,202.000 341.296 C 203.320 339.980,204.400 338.794,204.400 338.661 C 204.400 338.528,205.390 337.380,206.600 336.111 C 207.810 334.842,208.800 333.577,208.800 333.302 C 208.800 333.026,208.980 332.800,209.200 332.800 C 209.420 332.800,209.600 332.621,209.600 332.403 C 209.600 332.184,210.680 330.908,212.000 329.568 C 213.320 328.227,214.400 326.978,214.400 326.791 C 214.400 326.605,215.345 325.477,216.500 324.284 C 219.461 321.228,223.331 316.858,223.773 316.073 C 224.284 315.165,224.728 314.636,226.700 312.587 C 227.635 311.616,228.400 310.586,228.400 310.299 C 228.400 310.012,228.787 309.512,229.259 309.188 C 229.732 308.865,230.587 308.080,231.159 307.444 C 231.732 306.809,232.425 306.056,232.700 305.773 C 232.975 305.489,233.200 305.155,233.200 305.031 C 233.200 304.907,234.280 303.708,235.600 302.368 C 236.920 301.027,238.000 299.760,238.000 299.552 C 238.000 299.344,238.585 298.577,239.300 297.848 C 241.193 295.918,242.400 294.442,242.400 294.056 C 242.400 293.745,244.039 291.983,245.274 290.967 C 245.563 290.729,246.250 289.938,246.800 289.208 C 247.350 288.479,248.835 286.796,250.100 285.468 C 251.365 284.139,252.400 282.924,252.400 282.767 C 252.400 282.610,253.480 281.350,254.800 279.967 C 256.120 278.584,257.200 277.319,257.200 277.155 C 257.200 276.991,257.785 276.234,258.500 275.473 C 260.676 273.155,262.000 271.617,262.000 271.406 C 262.000 271.296,263.080 270.108,264.400 268.768 C 265.720 267.427,266.800 266.167,266.800 265.968 C 266.800 265.768,267.880 264.508,269.200 263.168 C 270.520 261.827,271.600 260.549,271.600 260.329 C 271.600 260.108,272.410 259.202,273.400 258.316 C 274.390 257.430,275.200 256.548,275.200 256.357 C 275.200 255.892,276.172 254.724,278.700 252.153 C 279.855 250.979,280.800 249.854,280.800 249.655 C 280.800 249.456,281.970 248.088,283.400 246.615 C 284.830 245.142,286.000 243.804,286.000 243.642 C 286.000 243.479,287.170 242.117,288.600 240.615 C 290.030 239.113,291.200 237.746,291.200 237.578 C 291.200 237.410,292.190 236.242,293.400 234.982 C 294.610 233.723,295.600 232.538,295.600 232.349 C 295.600 232.160,296.680 230.908,298.000 229.568 C 299.320 228.227,300.400 226.974,300.400 226.782 C 300.400 226.591,301.345 225.475,302.500 224.303 C 303.655 223.131,305.500 221.115,306.600 219.823 C 307.700 218.531,308.825 217.246,309.100 216.966 C 309.375 216.686,309.600 216.280,309.600 216.063 C 309.600 215.847,310.635 214.613,311.900 213.322 C 313.165 212.031,314.455 210.485,314.768 209.887 C 315.080 209.289,315.472 208.800,315.639 208.800 C 316.025 208.800,316.692 208.131,318.421 206.008 C 319.179 205.077,320.548 203.514,321.461 202.535 C 322.375 201.556,323.635 200.006,324.261 199.091 C 324.888 198.176,326.255 196.548,327.300 195.473 C 328.345 194.398,329.200 193.361,329.200 193.167 C 329.200 192.973,330.279 191.777,331.598 190.507 C 332.917 189.238,333.997 188.069,333.998 187.909 C 333.999 187.749,334.990 186.596,336.200 185.347 C 337.410 184.098,338.400 182.938,338.400 182.770 C 338.400 182.603,339.118 181.686,339.996 180.733 C 340.874 179.780,341.954 178.601,342.396 178.114 C 342.838 177.627,343.200 176.992,343.200 176.703 C 343.200 176.413,343.587 175.912,344.059 175.588 C 344.532 175.265,345.387 174.480,345.959 173.844 C 346.532 173.209,347.225 172.456,347.500 172.173 C 347.775 171.889,348.000 171.555,348.000 171.431 C 348.000 171.307,349.080 170.108,350.400 168.768 C 351.720 167.427,352.800 166.116,352.800 165.853 C 352.800 165.591,353.160 165.117,353.600 164.800 C 354.040 164.483,354.400 163.903,354.400 163.512 C 354.400 163.120,354.580 162.800,354.800 162.800 C 355.020 162.800,355.200 161.810,355.200 160.600 C 355.200 159.390,355.020 158.400,354.800 158.400 C 354.580 158.400,354.400 158.080,354.400 157.689 C 354.400 156.846,350.048 154.800,348.254 154.800 C 346.330 154.800,344.346 156.303,341.000 160.293 C 339.240 162.393,337.617 164.310,337.394 164.555 C 337.171 164.800,336.001 166.164,334.794 167.587 C 333.587 169.010,332.039 170.810,331.352 171.587 C 330.666 172.364,328.711 174.620,327.009 176.600 C 323.661 180.492,323.305 180.910,320.002 184.807 C 318.794 186.233,317.704 187.490,317.581 187.600 C 317.458 187.710,315.212 190.320,312.589 193.400 C 309.966 196.480,307.636 199.195,307.410 199.434 C 307.185 199.672,306.190 200.827,305.200 202.000 C 304.210 203.173,303.214 204.328,302.987 204.566 C 302.761 204.805,299.348 208.780,295.403 213.400 C 291.459 218.020,288.131 221.890,288.007 222.000 C 287.722 222.255,278.703 232.716,276.663 235.159 C 275.817 236.172,274.647 237.542,274.063 238.204 C 273.478 238.866,272.010 240.573,270.800 241.997 C 269.590 243.421,268.215 245.039,267.744 245.593 C 267.273 246.147,265.489 248.220,263.780 250.200 C 258.840 255.923,257.002 258.062,255.186 260.200 C 254.251 261.300,252.540 263.280,251.383 264.600 C 250.226 265.920,248.587 267.828,247.740 268.840 C 246.101 270.798,237.788 280.436,236.600 281.756 C 236.380 282.000,235.211 283.370,234.002 284.800 C 232.794 286.230,231.712 287.490,231.597 287.600 C 231.483 287.710,228.696 290.950,225.402 294.800 C 222.109 298.650,219.024 302.250,218.547 302.800 C 218.070 303.350,215.206 306.680,212.182 310.200 C 203.561 320.233,203.687 320.101,203.119 319.755 C 202.833 319.582,183.514 300.399,160.186 277.127 C 112.314 229.369,116.809 233.629,114.274 233.613 C 111.316 233.593,109.558 234.841,108.831 237.474 C 107.849 241.031,104.999 237.898,152.248 285.204 C 176.092 309.077,195.600 328.841,195.600 329.124 C 195.600 329.927,189.220 337.132,187.946 337.767 C 186.187 338.645,184.499 338.905,182.463 338.612 C 180.430 338.319,68.225 227.075,66.372 223.516 C 64.477 219.873,65.748 216.539,70.574 212.500 C 72.348 211.015,74.150 209.484,74.578 209.098 C 75.333 208.416,75.592 208.631,83.580 216.562 C 93.293 226.204,95.237 227.101,98.769 223.569 C 102.164 220.175,101.289 218.276,92.086 209.062 C 86.956 203.927,84.454 201.149,84.617 200.770 C 84.751 200.456,89.819 195.970,95.877 190.800 C 101.936 185.630,107.097 181.215,107.346 180.988 C 107.596 180.761,111.220 177.637,115.400 174.046 C 119.580 170.455,123.450 167.127,124.000 166.650 C 124.550 166.173,128.780 162.549,133.400 158.597 C 138.020 154.645,141.890 151.315,142.000 151.195 C 142.110 151.076,143.370 149.994,144.800 148.790 C 146.230 147.585,147.490 146.502,147.600 146.382 C 147.710 146.262,150.320 144.013,153.400 141.385 C 156.480 138.757,159.090 136.512,159.200 136.396 C 159.310 136.279,161.380 134.497,163.800 132.435 C 166.220 130.373,169.287 127.738,170.615 126.578 C 171.943 125.418,173.848 123.779,174.848 122.935 C 175.849 122.091,178.632 119.707,181.034 117.638 C 183.435 115.568,186.372 113.048,187.561 112.038 C 188.749 111.027,189.919 110.013,190.161 109.785 C 190.402 109.557,192.760 107.513,195.400 105.242 C 201.541 99.959,201.706 99.818,204.800 97.200 C 206.230 95.990,207.490 94.901,207.600 94.779 C 207.710 94.657,210.320 92.419,213.400 89.805 C 216.480 87.192,219.818 84.321,220.818 83.426 C 221.818 82.532,223.168 81.350,223.818 80.800 C 228.958 76.453,230.225 75.375,230.400 75.199 C 230.510 75.088,232.490 73.379,234.800 71.401 C 239.708 67.199,241.147 65.954,241.756 65.384 C 242.000 65.155,243.460 63.908,245.000 62.611 C 248.514 59.653,258.932 50.704,259.200 50.412 C 259.310 50.293,260.568 49.206,261.996 47.998 C 263.424 46.789,265.134 45.322,265.796 44.737 C 266.458 44.153,267.827 42.983,268.838 42.137 C 271.524 39.891,281.766 31.081,282.000 30.815 C 282.110 30.690,282.830 30.072,283.600 29.443 C 284.370 28.814,286.170 27.264,287.600 25.997 C 293.603 20.683,298.483 16.792,299.506 16.506 C 301.669 15.901,305.374 16.222,307.039 17.158 C 309.890 18.760,386.630 95.937,387.583 98.159 C 389.848 103.443,389.231 104.492,372.739 123.400 C 359.477 138.605,359.093 139.293,361.733 143.104 C 362.320 143.950,362.800 144.858,362.800 145.122 C 362.800 145.385,363.160 145.600,363.600 145.600 C 364.040 145.600,364.400 145.780,364.400 146.000 C 364.400 146.220,365.300 146.400,366.400 146.400 C 367.500 146.400,368.400 146.220,368.400 146.000 C 368.400 145.780,368.760 145.600,369.200 145.600 C 369.640 145.600,370.000 145.420,370.000 145.200 C 370.000 144.980,370.266 144.800,370.591 144.800 C 370.916 144.800,371.501 144.309,371.891 143.708 C 372.281 143.108,373.230 141.976,374.000 141.193 C 375.536 139.631,376.800 138.099,376.800 137.798 C 376.800 137.692,377.880 136.508,379.200 135.168 C 380.520 133.827,381.600 132.554,381.600 132.339 C 381.600 132.124,382.460 131.105,383.511 130.074 C 384.562 129.043,385.865 127.570,386.406 126.800 C 386.946 126.030,387.854 125.006,388.423 124.525 C 388.992 124.043,389.984 122.873,390.629 121.925 C 391.273 120.976,392.655 119.357,393.700 118.326 C 394.745 117.295,395.600 116.242,395.600 115.986 C 395.600 115.730,396.140 115.017,396.800 114.400 C 397.460 113.783,398.000 112.991,398.000 112.640 C 398.000 112.288,398.180 112.000,398.400 112.000 C 398.620 112.000,398.800 111.655,398.800 111.233 C 398.800 110.812,399.025 110.392,399.300 110.300 C 399.679 110.174,399.800 108.111,399.800 101.800 C 399.800 95.489,399.679 93.426,399.300 93.300 C 399.025 93.208,398.800 92.878,398.800 92.567 C 398.800 92.255,398.620 92.000,398.400 92.000 C 398.180 92.000,398.000 91.640,398.000 91.200 C 398.000 90.760,397.820 90.400,397.600 90.400 C 397.380 90.400,397.200 90.127,397.200 89.794 C 397.200 89.173,394.529 86.290,387.282 79.091 C 385.017 76.841,381.327 73.151,379.082 70.892 C 376.837 68.633,373.147 64.943,370.882 62.692 C 368.617 60.441,364.927 56.755,362.682 54.500 C 360.437 52.244,356.755 48.554,354.500 46.300 C 343.295 35.098,341.126 32.927,337.716 29.501 C 335.690 27.465,332.000 23.787,329.516 21.327 C 327.032 18.867,323.368 15.177,321.374 13.127 C 317.187 8.823,315.796 7.600,315.085 7.600 C 314.806 7.600,314.317 7.240,314.000 6.800 C 313.683 6.360,313.103 6.000,312.712 6.000 C 312.320 6.000,312.000 5.820,312.000 5.600 C 312.000 5.380,311.460 5.200,310.800 5.200 C 310.140 5.200,309.600 5.020,309.600 4.800 C 309.600 4.580,308.981 4.400,308.224 4.400 C 307.467 4.400,306.736 4.220,306.600 4.000 C 306.463 3.779,304.663 3.600,302.576 3.600 C 300.325 3.600,298.800 3.762,298.800 4.000 M285.000 80.591 C 284.780 80.662,283.286 81.022,281.680 81.391 C 278.163 82.200,275.150 83.521,271.400 85.897 C 268.291 87.868,171.284 184.306,166.754 189.930 C 158.667 199.970,157.201 214.087,163.025 225.860 C 172.358 244.726,196.640 250.400,213.457 237.644 C 219.133 233.339,316.698 135.153,318.633 131.800 C 332.207 108.270,316.281 80.223,289.465 80.432 C 287.229 80.449,285.220 80.521,285.000 80.591 M296.493 92.532 C 297.313 92.818,298.108 93.175,298.259 93.326 C 298.410 93.477,298.783 93.600,299.089 93.600 C 300.485 93.600,305.565 97.674,307.740 100.538 C 313.923 108.681,313.818 119.456,307.474 127.800 C 305.015 131.035,207.880 227.978,205.600 229.473 C 185.104 242.914,160.970 218.228,174.830 198.000 C 176.120 196.117,274.180 97.836,276.705 95.895 C 277.202 95.513,277.714 95.200,277.843 95.200 C 277.971 95.200,278.554 94.861,279.138 94.447 C 282.721 91.907,291.813 90.904,296.493 92.532 M115.159 289.278 C 143.121 317.261,166.000 340.286,166.000 340.444 C 166.000 341.047,162.165 344.391,161.467 344.395 C 161.063 344.398,159.296 344.033,157.539 343.584 C 125.471 335.397,91.719 344.317,67.104 367.486 C 65.402 369.089,63.691 370.400,63.302 370.400 C 62.378 370.400,34.000 342.018,34.000 341.094 C 34.000 340.708,35.242 339.089,36.759 337.496 C 57.512 315.717,66.976 286.359,62.774 256.800 C 62.332 253.689,62.178 252.927,60.816 247.129 C 60.367 245.220,60.000 243.325,60.000 242.917 C 60.000 242.103,63.124 238.467,63.859 238.426 C 64.111 238.412,87.196 261.295,115.159 289.278 M40.097 364.297 C 45.104 369.300,49.200 373.547,49.200 373.735 C 49.200 374.274,39.698 383.515,38.876 383.776 C 37.952 384.069,34.274 382.867,19.800 377.540 C 17.380 376.649,14.627 375.641,13.682 375.299 C 12.612 374.912,12.009 374.464,12.082 374.111 C 12.194 373.574,30.376 355.200,30.796 355.200 C 30.905 355.200,35.090 359.294,40.097 364.297 " stroke="none" fill="#060506" fill-rule="evenodd"></path><path id="path1" d="M283.012 93.264 C 281.699 93.708,280.141 94.415,279.550 94.835 C 278.960 95.256,278.236 95.600,277.943 95.600 C 277.650 95.600,254.361 118.685,226.190 146.900 C 170.536 202.642,173.179 199.781,171.782 205.800 C 167.134 225.829,190.271 240.567,206.600 227.978 C 209.650 225.627,307.812 127.172,308.474 125.800 C 308.792 125.140,309.245 124.240,309.480 123.800 C 312.989 117.223,312.341 108.190,307.885 101.602 C 302.733 93.985,291.762 90.307,283.012 93.264 M74.719 209.700 C 74.423 209.975,73.015 211.186,71.590 212.391 C 66.407 216.776,65.396 218.775,66.573 222.318 C 67.179 224.142,71.219 228.284,117.316 274.327 C 188.609 345.539,180.725 338.000,183.900 338.000 C 187.109 338.000,187.927 337.392,193.585 330.800 C 195.198 328.922,195.705 329.689,187.300 321.290 C 134.031 268.057,108.555 242.105,108.133 240.641 C 107.658 238.999,107.909 237.609,109.066 235.473 L 109.677 234.347 104.660 229.373 C 99.151 223.913,99.419 224.066,97.400 225.200 C 93.980 227.121,92.358 226.170,82.985 216.753 C 78.850 212.599,75.420 209.200,75.362 209.200 C 75.304 209.200,75.015 209.425,74.719 209.700 " stroke="none" fill="#c8e4e9" fill-rule="evenodd"></path><path id="path2" d="M299.687 16.913 C 298.531 17.353,295.361 19.702,293.000 21.867 C 292.560 22.271,291.570 23.119,290.800 23.753 C 290.030 24.387,288.320 25.848,287.000 26.999 C 284.410 29.258,278.442 34.391,276.560 35.978 C 275.384 36.970,271.370 40.430,267.000 44.217 C 265.680 45.361,258.030 51.939,250.000 58.835 C 241.970 65.731,234.950 71.764,234.400 72.242 C 233.850 72.720,232.500 73.876,231.400 74.812 C 230.300 75.748,228.320 77.451,227.000 78.598 C 223.230 81.873,213.100 90.567,212.055 91.425 C 211.536 91.851,210.906 92.387,210.655 92.615 C 210.405 92.843,208.040 94.887,205.400 97.158 C 199.259 102.441,199.094 102.582,196.000 105.200 C 194.570 106.410,193.310 107.495,193.200 107.610 C 193.090 107.726,191.830 108.806,190.400 110.010 C 188.970 111.215,187.710 112.300,187.600 112.423 C 187.426 112.618,184.527 115.121,175.600 122.787 C 174.390 123.826,170.520 127.154,167.000 130.183 C 159.324 136.787,159.282 136.822,156.000 139.600 C 154.570 140.810,153.310 141.898,153.200 142.018 C 153.090 142.138,150.480 144.387,147.400 147.015 C 144.320 149.643,141.710 151.886,141.600 151.999 C 141.490 152.112,140.233 153.194,138.807 154.402 C 135.611 157.111,134.024 158.475,133.444 159.011 C 133.200 159.237,130.300 161.738,127.000 164.569 C 123.700 167.401,119.920 170.657,118.600 171.806 C 117.280 172.954,114.941 174.953,113.402 176.247 C 111.863 177.541,110.409 178.780,110.172 179.000 C 109.935 179.220,108.684 180.300,107.392 181.400 C 106.101 182.500,104.122 184.210,102.994 185.200 C 100.767 187.156,99.932 187.873,96.000 191.200 C 94.570 192.410,93.310 193.491,93.200 193.602 C 93.090 193.714,91.830 194.792,90.400 195.999 C 88.970 197.206,87.116 198.830,86.281 199.608 L 84.761 201.022 92.120 208.411 C 101.206 217.533,102.132 219.210,100.007 222.695 L 99.218 223.990 104.614 229.349 C 107.582 232.296,110.100 234.562,110.209 234.385 C 110.319 234.208,111.190 233.765,112.144 233.400 C 115.979 231.936,112.691 228.986,160.355 276.646 C 202.364 318.652,203.342 319.596,204.119 318.906 C 204.556 318.518,205.813 317.120,206.911 315.800 C 208.010 314.480,209.946 312.230,211.215 310.800 C 212.483 309.370,214.820 306.670,216.407 304.800 C 217.993 302.930,219.766 300.860,220.346 300.200 C 220.926 299.539,221.918 298.369,222.550 297.600 C 223.183 296.830,224.742 295.030,226.014 293.600 C 227.287 292.170,231.084 287.760,234.453 283.800 C 237.821 279.840,240.975 276.150,241.460 275.600 C 243.498 273.292,244.298 272.362,248.343 267.600 C 250.679 264.850,252.773 262.407,252.995 262.170 C 253.218 261.934,254.300 260.691,255.400 259.409 C 256.500 258.128,257.583 256.881,257.806 256.639 C 258.029 256.398,259.199 255.030,260.406 253.600 C 261.613 252.170,262.700 250.910,262.822 250.800 C 262.945 250.690,266.266 246.820,270.203 242.200 C 274.140 237.580,277.465 233.710,277.591 233.600 C 277.718 233.490,278.806 232.230,280.010 230.800 C 281.215 229.370,282.294 228.110,282.409 228.000 C 282.523 227.890,284.767 225.280,287.395 222.200 C 290.023 219.120,292.269 216.510,292.387 216.400 C 292.504 216.290,293.585 215.030,294.790 213.600 C 295.994 212.170,297.081 210.910,297.206 210.800 C 297.330 210.690,299.576 208.080,302.195 205.000 C 304.815 201.920,307.057 199.310,307.179 199.200 C 307.301 199.090,308.390 197.830,309.600 196.400 C 310.810 194.970,312.187 193.350,312.660 192.800 C 313.133 192.250,315.989 188.920,319.006 185.400 C 322.024 181.880,325.057 178.364,325.746 177.587 C 326.436 176.810,327.990 175.010,329.200 173.587 C 334.109 167.815,341.282 159.491,341.855 158.902 C 342.121 158.628,342.681 157.970,343.099 157.438 C 345.343 154.584,348.360 153.751,351.200 155.200 C 353.357 156.300,353.793 156.222,355.080 154.506 C 355.696 153.684,356.740 152.440,357.400 151.741 C 359.064 149.981,360.388 148.265,360.395 147.860 C 360.398 147.674,360.969 146.990,361.663 146.341 L 362.927 145.161 362.060 144.080 C 359.231 140.555,359.657 138.040,363.907 133.176 C 366.901 129.749,369.627 126.586,373.193 122.400 C 374.786 120.530,376.948 118.010,377.997 116.800 C 379.047 115.590,381.389 112.890,383.202 110.800 C 388.058 105.203,389.039 102.127,387.235 98.155 C 386.367 96.242,308.881 18.476,306.741 17.369 C 305.093 16.517,301.359 16.275,299.687 16.913 M293.800 80.205 C 296.725 80.482,297.348 80.629,301.589 82.049 C 307.625 84.069,313.221 88.226,317.402 93.796 C 319.352 96.394,321.534 100.704,322.366 103.600 C 322.651 104.590,323.041 105.807,323.235 106.304 C 324.414 109.335,323.721 123.784,322.356 124.627 C 322.160 124.748,322.000 125.101,322.000 125.412 C 322.000 126.407,319.590 131.158,317.642 134.002 C 317.116 134.771,293.896 158.230,266.042 186.133 C 211.271 241.002,213.071 239.330,205.000 242.850 C 201.033 244.580,190.712 245.434,186.646 244.368 C 182.851 243.373,181.708 243.017,180.000 242.295 C 177.164 241.097,175.567 240.203,173.331 238.560 C 166.880 233.822,162.366 227.481,160.405 220.400 C 160.131 219.410,159.748 218.078,159.553 217.440 C 159.085 215.904,159.099 205.792,159.571 204.228 C 161.153 198.991,161.794 197.127,162.075 196.954 C 162.254 196.843,162.400 196.482,162.400 196.150 C 162.400 193.621,166.554 189.247,215.266 140.493 C 275.182 80.523,269.957 85.441,276.765 82.608 C 280.799 80.930,287.919 79.447,290.200 79.812 C 290.640 79.882,292.260 80.059,293.800 80.205 M21.586 364.600 C 11.451 374.750,11.682 374.416,14.288 375.176 C 16.123 375.712,16.637 375.915,18.395 376.800 C 18.832 377.020,19.522 377.200,19.928 377.200 C 20.334 377.200,20.786 377.319,20.932 377.465 C 21.195 377.728,23.725 378.688,27.200 379.842 C 28.190 380.171,29.360 380.593,29.800 380.780 C 30.240 380.966,31.230 381.336,32.000 381.600 C 33.459 382.101,34.244 382.396,36.119 383.150 C 38.454 384.089,38.941 383.820,43.981 378.803 C 46.631 376.164,48.800 373.878,48.800 373.723 C 48.800 373.390,31.129 355.600,30.798 355.600 C 30.674 355.600,26.529 359.650,21.586 364.600 " stroke="none" fill="#fb6abf" fill-rule="evenodd"></path><path id="path3" d="M288.300 92.293 C 289.235 92.377,290.765 92.377,291.700 92.293 C 292.635 92.209,291.870 92.140,290.000 92.140 C 288.130 92.140,287.365 92.209,288.300 92.293 M225.599 147.100 L 176.600 196.200 225.700 147.201 C 252.705 120.251,274.800 98.156,274.800 98.101 C 274.800 97.821,271.154 101.452,225.599 147.100 M311.728 114.000 C 311.728 115.430,311.801 116.015,311.889 115.300 C 311.978 114.585,311.978 113.415,311.889 112.700 C 311.801 111.985,311.728 112.570,311.728 114.000 M256.799 178.300 L 208.600 226.600 256.900 178.401 C 301.804 133.590,305.379 130.000,305.099 130.000 C 305.044 130.000,283.309 151.735,256.799 178.300 M83.000 216.800 C 86.294 220.100,89.080 222.800,89.190 222.800 C 89.300 222.800,86.694 220.100,83.400 216.800 C 80.106 213.500,77.320 210.800,77.210 210.800 C 77.100 210.800,79.706 213.500,83.000 216.800 M70.175 213.300 L 69.000 214.600 70.300 213.425 C 71.512 212.330,71.784 212.000,71.475 212.000 C 71.406 212.000,70.821 212.585,70.175 213.300 M93.062 225.700 C 93.164 225.865,93.946 226.000,94.800 226.000 C 95.654 226.000,96.436 225.865,96.538 225.700 C 96.640 225.535,95.858 225.400,94.800 225.400 C 93.742 225.400,92.960 225.535,93.062 225.700 M80.600 238.000 C 83.454 240.860,85.878 243.200,85.988 243.200 C 86.098 243.200,83.854 240.860,81.000 238.000 C 78.146 235.140,75.722 232.800,75.612 232.800 C 75.502 232.800,77.746 235.140,80.600 238.000 M61.831 240.768 C 60.225 242.413,60.252 242.245,61.006 245.800 C 61.146 246.460,61.412 247.360,61.598 247.800 C 61.784 248.240,62.058 249.320,62.206 250.200 C 62.355 251.080,62.641 252.700,62.843 253.800 C 64.924 265.148,64.598 279.680,61.999 291.400 C 61.755 292.500,61.456 293.987,61.334 294.704 C 61.212 295.421,60.951 296.106,60.756 296.227 C 60.560 296.348,60.400 296.966,60.400 297.600 C 60.400 298.234,60.220 298.864,60.000 299.000 C 59.780 299.136,59.600 299.676,59.600 300.200 C 59.600 300.724,59.420 301.264,59.200 301.400 C 58.980 301.536,58.800 301.999,58.800 302.429 C 58.800 302.859,58.641 303.523,58.447 303.905 C 58.252 304.287,57.916 305.050,57.700 305.600 C 56.715 308.106,56.371 308.876,54.294 313.235 C 52.078 317.886,48.398 324.164,46.836 325.961 C 46.376 326.490,46.000 327.062,46.000 327.233 C 46.000 327.403,45.768 327.781,45.484 328.071 C 45.200 328.362,44.705 328.979,44.384 329.443 C 43.329 330.965,40.251 334.541,37.282 337.691 C 33.683 341.510,33.313 340.624,42.092 349.199 C 45.809 352.830,52.080 359.007,56.028 362.926 L 63.205 370.052 67.014 366.535 C 69.108 364.602,71.132 362.849,71.511 362.642 C 71.890 362.434,72.470 361.971,72.800 361.613 C 73.130 361.255,74.030 360.525,74.800 359.992 C 75.570 359.458,76.549 358.702,76.975 358.311 C 77.402 357.920,77.947 357.600,78.187 357.600 C 78.427 357.600,78.883 357.240,79.200 356.800 C 79.517 356.360,79.929 356.000,80.116 356.000 C 80.303 356.000,81.241 355.460,82.200 354.800 C 83.159 354.140,84.137 353.600,84.372 353.600 C 84.607 353.600,84.800 353.462,84.800 353.294 C 84.800 353.126,85.475 352.681,86.300 352.306 C 87.125 351.930,88.880 351.023,90.200 350.291 C 91.520 349.559,93.680 348.534,95.000 348.014 C 96.320 347.495,97.580 346.939,97.800 346.781 C 98.020 346.622,98.830 346.361,99.600 346.200 C 100.370 346.039,101.180 345.781,101.400 345.626 C 101.620 345.471,102.610 345.113,103.600 344.830 C 104.590 344.548,105.813 344.155,106.319 343.958 C 106.824 343.761,107.679 343.600,108.219 343.600 C 108.758 343.600,109.200 343.420,109.200 343.200 C 109.200 342.980,109.909 342.800,110.776 342.800 C 111.643 342.800,112.464 342.620,112.600 342.400 C 112.736 342.180,113.546 342.000,114.400 342.000 C 115.254 342.000,116.064 341.820,116.200 341.600 C 116.336 341.380,117.481 341.200,118.744 341.200 C 120.007 341.200,121.211 341.040,121.420 340.844 C 121.764 340.521,130.982 339.898,134.400 339.966 C 139.765 340.074,145.861 340.521,146.180 340.831 C 146.389 341.034,147.593 341.200,148.856 341.200 C 150.119 341.200,151.264 341.380,151.400 341.600 C 151.536 341.820,152.436 342.000,153.400 342.000 C 154.364 342.000,155.264 342.180,155.400 342.400 C 155.536 342.620,156.267 342.800,157.024 342.800 C 157.781 342.800,158.400 342.980,158.400 343.200 C 158.400 344.442,162.256 343.582,163.806 341.994 L 165.374 340.388 158.288 333.294 C 154.391 329.392,131.685 306.625,107.829 282.700 C 83.974 258.775,64.209 239.200,63.909 239.200 C 63.608 239.200,62.673 239.906,61.831 240.768 M117.400 251.200 C 121.576 255.380,125.082 258.800,125.192 258.800 C 125.302 258.800,121.976 255.380,117.800 251.200 C 113.624 247.020,110.118 243.600,110.008 243.600 C 109.898 243.600,113.224 247.020,117.400 251.200 M97.400 254.800 C 100.033 257.440,102.277 259.600,102.387 259.600 C 102.497 259.600,100.433 257.440,97.800 254.800 C 95.167 252.160,92.923 250.000,92.813 250.000 C 92.703 250.000,94.767 252.160,97.400 254.800 M133.000 266.800 C 136.294 270.100,139.080 272.800,139.190 272.800 C 139.300 272.800,136.694 270.100,133.400 266.800 C 130.106 263.500,127.320 260.800,127.210 260.800 C 127.100 260.800,129.706 263.500,133.000 266.800 M113.800 271.200 C 116.433 273.840,118.677 276.000,118.787 276.000 C 118.897 276.000,116.833 273.840,114.200 271.200 C 111.567 268.560,109.323 266.400,109.213 266.400 C 109.103 266.400,111.167 268.560,113.800 271.200 M151.800 285.600 C 155.094 288.900,157.880 291.600,157.990 291.600 C 158.100 291.600,155.494 288.900,152.200 285.600 C 148.906 282.300,146.120 279.600,146.010 279.600 C 145.900 279.600,148.506 282.300,151.800 285.600 M130.600 288.000 C 133.454 290.860,135.878 293.200,135.988 293.200 C 136.098 293.200,133.854 290.860,131.000 288.000 C 128.146 285.140,125.722 282.800,125.612 282.800 C 125.502 282.800,127.746 285.140,130.600 288.000 M167.400 301.200 C 171.576 305.380,175.082 308.800,175.192 308.800 C 175.302 308.800,171.976 305.380,167.800 301.200 C 163.624 297.020,160.118 293.600,160.008 293.600 C 159.898 293.600,163.224 297.020,167.400 301.200 M147.400 304.800 C 150.033 307.440,152.277 309.600,152.387 309.600 C 152.497 309.600,150.433 307.440,147.800 304.800 C 145.167 302.160,142.923 300.000,142.813 300.000 C 142.703 300.000,144.767 302.160,147.400 304.800 M179.697 313.600 C 181.143 315.250,185.133 319.330,188.563 322.667 C 195.607 329.518,195.236 328.882,193.406 330.980 C 192.647 331.849,192.102 332.635,192.193 332.726 C 192.405 332.938,194.199 330.886,194.856 329.680 C 195.332 328.805,194.900 328.305,186.212 319.680 C 181.182 314.686,178.250 311.950,179.697 313.600 M169.127 326.431 C 174.696 332.056,179.826 336.968,180.527 337.347 C 181.768 338.018,181.775 338.017,180.804 337.317 C 180.256 336.923,177.106 333.928,173.804 330.663 C 170.502 327.398,165.820 322.809,163.400 320.465 C 160.980 318.121,163.557 320.806,169.127 326.431 M189.822 335.058 C 188.954 336.060,187.804 337.046,187.266 337.251 C 186.729 337.455,186.389 337.722,186.510 337.844 C 186.632 337.965,187.062 337.884,187.466 337.662 C 188.456 337.120,192.271 333.195,191.785 333.219 C 191.573 333.229,190.690 334.057,189.822 335.058 M183.305 338.287 C 183.914 338.379,184.814 338.377,185.305 338.282 C 185.797 338.187,185.300 338.111,184.200 338.114 C 183.100 338.117,182.697 338.195,183.305 338.287 " stroke="none" fill="#7fa4b3" fill-rule="evenodd"></path><path id="path4" d="M301.905 16.283 C 302.402 16.379,303.122 16.375,303.505 16.275 C 303.887 16.175,303.480 16.096,302.600 16.101 C 301.720 16.105,301.407 16.187,301.905 16.283 M298.600 16.876 C 297.885 17.279,290.233 23.605,288.200 25.472 C 287.760 25.876,286.236 27.195,284.813 28.403 C 281.136 31.525,279.624 32.861,277.800 34.599 C 274.793 37.463,278.252 34.604,287.000 26.994 C 288.320 25.846,290.030 24.387,290.800 23.753 C 291.570 23.119,292.560 22.271,293.000 21.867 C 295.403 19.664,298.534 17.355,299.687 16.937 C 300.566 16.618,300.736 16.455,300.200 16.443 C 299.760 16.433,299.040 16.628,298.600 16.876 M305.726 16.980 C 306.566 17.279,307.601 17.839,308.026 18.224 C 308.452 18.609,308.800 18.749,308.800 18.536 C 308.800 18.006,305.869 16.396,304.946 16.418 C 304.535 16.427,304.887 16.680,305.726 16.980 M309.200 18.913 C 309.200 19.311,316.818 26.915,317.018 26.716 C 317.104 26.630,315.380 24.772,313.187 22.587 C 310.994 20.402,309.200 18.749,309.200 18.913 M319.902 29.971 C 320.501 30.615,321.069 31.065,321.164 30.970 C 321.385 30.748,319.566 28.800,319.137 28.800 C 318.959 28.800,319.303 29.327,319.902 29.971 M321.600 31.394 C 321.600 31.556,322.410 32.487,323.400 33.463 C 324.390 34.439,325.200 35.091,325.200 34.913 C 325.200 34.734,324.390 33.803,323.400 32.844 C 322.410 31.884,321.600 31.232,321.600 31.394 M325.600 35.313 C 325.600 35.711,333.218 43.315,333.418 43.116 C 333.504 43.030,331.780 41.172,329.587 38.987 C 327.394 36.802,325.600 35.149,325.600 35.313 M274.000 37.668 C 273.010 38.541,270.580 40.632,268.600 42.316 C 266.620 43.999,264.910 45.473,264.800 45.591 C 264.690 45.709,263.430 46.793,262.000 48.000 C 260.570 49.207,259.310 50.293,259.200 50.412 C 258.947 50.688,248.713 59.484,245.000 62.618 C 242.243 64.945,240.317 66.606,239.444 67.409 C 239.200 67.634,237.110 69.433,234.800 71.408 C 232.490 73.382,230.510 75.088,230.400 75.199 C 230.225 75.375,228.958 76.453,223.818 80.800 C 223.168 81.350,221.818 82.532,220.818 83.426 C 219.818 84.321,216.480 87.192,213.400 89.805 C 210.320 92.419,207.710 94.657,207.600 94.779 C 207.490 94.901,206.230 95.990,204.800 97.200 C 201.825 99.718,201.828 99.715,195.400 105.235 C 192.760 107.501,190.510 109.459,190.400 109.585 C 190.290 109.710,189.601 110.305,188.869 110.906 C 188.137 111.508,187.673 112.000,187.838 112.000 C 188.077 112.000,192.365 108.489,193.200 107.610 C 193.310 107.495,194.570 106.410,196.000 105.200 C 199.199 102.492,199.503 102.233,205.200 97.322 C 207.730 95.142,210.225 93.007,210.745 92.579 C 211.264 92.150,211.894 91.615,212.145 91.389 C 212.395 91.163,215.300 88.662,218.600 85.831 C 221.900 82.999,225.680 79.745,227.000 78.598 C 228.320 77.451,230.300 75.748,231.400 74.812 C 232.500 73.876,233.850 72.720,234.400 72.242 C 234.950 71.764,241.970 65.731,250.000 58.835 C 258.030 51.939,265.680 45.361,267.000 44.217 C 269.442 42.100,275.663 36.767,275.967 36.530 C 276.058 36.459,276.058 36.328,275.967 36.241 C 275.875 36.153,274.990 36.795,274.000 37.668 M335.337 45.400 C 336.313 46.390,337.244 47.200,337.406 47.200 C 337.568 47.200,336.916 46.390,335.956 45.400 C 334.997 44.410,334.066 43.600,333.887 43.600 C 333.709 43.600,334.361 44.410,335.337 45.400 M338.641 48.737 C 339.279 49.363,339.876 49.812,339.968 49.736 C 340.218 49.529,338.324 47.600,337.872 47.600 C 337.658 47.600,338.004 48.112,338.641 48.737 M342.000 51.713 C 342.000 52.111,349.618 59.715,349.818 59.516 C 349.904 59.430,348.180 57.572,345.987 55.387 C 343.794 53.202,342.000 51.549,342.000 51.713 M351.737 61.800 C 352.713 62.790,353.644 63.600,353.806 63.600 C 353.968 63.600,353.316 62.790,352.356 61.800 C 351.397 60.810,350.466 60.000,350.287 60.000 C 350.109 60.000,350.761 60.810,351.737 61.800 M356.254 66.344 C 357.544 67.633,358.676 68.622,358.769 68.542 C 358.999 68.342,354.686 64.005,354.254 64.002 C 354.064 64.001,354.964 65.055,356.254 66.344 M359.200 68.913 C 359.200 69.311,366.818 76.915,367.018 76.716 C 367.104 76.630,365.380 74.772,363.187 72.587 C 360.994 70.402,359.200 68.749,359.200 68.913 M369.902 79.971 C 370.501 80.615,371.069 81.065,371.164 80.970 C 371.385 80.748,369.566 78.800,369.137 78.800 C 368.959 78.800,369.303 79.327,369.902 79.971 M287.600 80.016 C 286.234 80.216,286.757 80.294,289.767 80.340 C 291.948 80.373,293.658 80.335,293.567 80.256 C 293.187 79.928,289.272 79.770,287.600 80.016 M282.200 80.800 L 281.400 81.144 282.200 81.125 C 282.640 81.114,283.540 80.968,284.200 80.800 L 285.400 80.495 284.200 80.475 C 283.540 80.465,282.640 80.611,282.200 80.800 M294.433 80.544 C 294.525 80.624,295.410 80.806,296.400 80.950 C 297.658 81.133,298.019 81.091,297.600 80.812 C 297.060 80.453,294.032 80.197,294.433 80.544 M279.200 81.600 C 278.405 82.114,279.404 82.114,280.600 81.600 L 281.400 81.256 280.600 81.234 C 280.160 81.222,279.530 81.387,279.200 81.600 M371.600 81.394 C 371.600 81.556,372.410 82.487,373.400 83.463 C 374.390 84.439,375.200 85.091,375.200 84.913 C 375.200 84.734,374.390 83.803,373.400 82.844 C 372.410 81.884,371.600 81.232,371.600 81.394 M274.779 83.510 C 269.701 86.061,268.466 87.242,216.870 138.882 C 166.801 188.995,162.386 193.631,162.404 196.074 C 162.406 196.363,162.971 195.610,163.660 194.400 C 164.349 193.190,165.775 191.120,166.830 189.800 C 169.751 186.143,268.314 87.899,270.600 86.366 C 271.700 85.628,273.950 84.352,275.600 83.530 C 277.250 82.708,278.417 82.027,278.192 82.018 C 277.968 82.008,276.432 82.680,274.779 83.510 M302.758 82.837 C 303.725 83.266,304.600 83.534,304.702 83.432 C 304.924 83.210,302.094 81.988,301.451 82.028 C 301.203 82.044,301.791 82.408,302.758 82.837 M305.200 83.790 C 305.200 83.894,305.785 84.275,306.500 84.637 C 308.289 85.542,311.900 88.293,313.669 90.100 C 314.476 90.925,315.279 91.600,315.452 91.600 C 316.208 91.600,311.917 87.748,308.955 85.769 C 305.875 83.710,305.200 83.354,305.200 83.790 M375.600 85.348 C 375.600 85.507,376.050 86.086,376.600 86.636 C 377.150 87.186,377.600 87.480,377.600 87.288 C 377.600 87.096,377.150 86.517,376.600 86.000 C 376.050 85.483,375.600 85.190,375.600 85.348 M378.000 87.732 C 378.000 88.140,380.814 90.919,381.019 90.714 C 381.111 90.623,380.469 89.848,379.593 88.993 C 378.717 88.137,378.000 87.570,378.000 87.732 M382.164 92.200 C 382.714 92.750,383.293 93.200,383.452 93.200 C 383.610 93.200,383.317 92.750,382.800 92.200 C 382.283 91.650,381.704 91.200,381.512 91.200 C 381.320 91.200,381.614 91.650,382.164 92.200 M288.700 91.889 C 289.415 91.978,290.585 91.978,291.300 91.889 C 292.015 91.801,291.430 91.728,290.000 91.728 C 288.570 91.728,287.985 91.801,288.700 91.889 M284.000 92.395 C 283.591 92.655,283.910 92.699,285.000 92.532 C 286.977 92.229,287.314 91.998,285.767 92.006 C 285.125 92.009,284.330 92.184,284.000 92.395 M293.800 92.278 C 294.240 92.380,295.484 92.718,296.564 93.029 C 297.644 93.340,298.406 93.473,298.257 93.323 C 297.764 92.831,295.019 92.011,294.000 92.052 C 293.188 92.085,293.151 92.128,293.800 92.278 M316.362 93.100 C 317.674 94.869,318.870 96.232,318.730 95.800 C 318.490 95.060,316.203 92.031,315.873 92.015 C 315.693 92.007,315.913 92.495,316.362 93.100 M280.612 93.624 C 279.738 94.060,278.838 94.605,278.612 94.837 C 278.385 95.068,279.100 94.816,280.200 94.277 C 281.300 93.739,282.470 93.200,282.800 93.081 C 283.333 92.887,283.333 92.861,282.800 92.848 C 282.470 92.839,281.485 93.188,280.612 93.624 M301.024 95.024 C 303.887 96.741,306.405 99.103,308.240 101.795 C 308.988 102.892,309.600 103.644,309.600 103.467 C 309.600 101.556,301.170 93.600,299.145 93.600 C 298.871 93.600,299.716 94.241,301.024 95.024 M386.164 96.431 C 386.734 97.108,387.200 97.858,387.200 98.097 C 387.200 98.337,387.316 98.417,387.458 98.276 C 387.758 97.975,385.962 95.207,385.464 95.203 C 385.280 95.201,385.595 95.754,386.164 96.431 M226.275 145.900 C 182.525 189.615,173.200 199.239,173.200 200.673 C 173.200 200.847,173.850 200.002,174.645 198.795 C 175.505 197.488,196.431 176.245,226.357 146.300 C 254.005 118.635,276.533 96.000,276.420 96.000 C 276.306 96.000,253.741 118.455,226.275 145.900 M319.386 97.500 C 319.735 98.215,320.106 98.800,320.210 98.800 C 320.608 98.800,320.352 98.163,319.567 97.200 L 318.752 96.200 319.386 97.500 M387.800 101.800 C 387.800 103.408,387.932 104.516,388.094 104.262 C 388.256 104.008,388.388 102.900,388.388 101.800 C 388.388 100.700,388.256 99.592,388.094 99.338 C 387.932 99.084,387.800 100.192,387.800 101.800 M320.446 99.400 C 320.469 100.099,321.940 103.027,321.954 102.400 C 321.961 102.070,321.622 101.170,321.200 100.400 C 320.778 99.630,320.439 99.180,320.446 99.400 M322.244 104.200 C 322.573 105.671,322.802 105.990,322.794 104.967 C 322.791 104.545,322.605 103.930,322.382 103.600 C 322.085 103.162,322.048 103.324,322.244 104.200 M310.433 105.650 C 310.415 105.787,310.695 106.687,311.055 107.650 C 311.982 110.123,311.994 117.448,311.076 120.383 C 310.701 121.584,310.545 122.394,310.729 122.183 C 311.889 120.860,312.665 114.158,312.073 110.585 C 311.729 108.517,310.530 104.906,310.433 105.650 M323.059 107.800 C 323.199 108.900,323.377 109.875,323.456 109.967 C 323.799 110.364,323.550 106.941,323.197 106.400 C 322.930 105.990,322.886 106.435,323.059 107.800 M383.756 110.101 C 379.482 115.058,378.710 116.000,378.923 116.000 C 379.029 116.000,380.621 114.245,382.459 112.100 C 386.247 107.681,386.961 106.800,386.749 106.801 C 386.667 106.802,385.320 108.287,383.756 110.101 M323.744 114.000 C 323.744 116.090,323.812 116.945,323.894 115.900 C 323.976 114.855,323.976 113.145,323.894 112.100 C 323.812 111.055,323.744 111.910,323.744 114.000 M182.800 116.035 C 178.127 120.031,174.745 123.322,178.200 120.510 C 182.003 117.416,187.666 112.400,187.334 112.421 C 187.150 112.433,185.110 114.059,182.800 116.035 M377.800 116.929 C 377.580 117.203,376.434 118.555,375.254 119.934 C 374.074 121.314,373.174 122.494,373.254 122.558 C 373.334 122.621,374.631 121.262,376.136 119.537 C 377.640 117.811,378.720 116.407,378.536 116.415 C 378.351 116.424,378.020 116.655,377.800 116.929 M323.262 119.000 C 323.222 119.660,323.089 120.650,322.967 121.200 C 322.776 122.060,322.808 122.101,323.196 121.493 C 323.444 121.104,323.577 120.114,323.491 119.293 C 323.356 118.004,323.325 117.964,323.262 119.000 M174.586 123.133 C 171.011 126.277,159.883 135.805,159.233 136.279 C 159.142 136.345,159.143 136.477,159.237 136.570 C 159.331 136.664,162.646 133.945,166.604 130.529 C 170.562 127.112,174.318 123.878,174.950 123.342 C 175.583 122.806,176.033 122.299,175.950 122.217 C 175.867 122.134,175.253 122.546,174.586 123.133 M322.454 122.867 C 322.425 123.234,322.284 123.864,322.141 124.267 C 321.941 124.833,321.995 124.896,322.375 124.546 C 322.646 124.297,322.787 123.667,322.688 123.146 C 322.590 122.626,322.484 122.500,322.454 122.867 M309.099 124.832 C 308.495 125.914,308.083 126.800,308.183 126.800 C 308.457 126.800,310.521 123.188,310.347 123.014 C 310.265 122.932,309.703 123.750,309.099 124.832 M370.549 125.484 C 369.477 126.740,368.809 127.639,369.064 127.483 C 369.623 127.139,372.954 123.200,372.686 123.200 C 372.582 123.200,371.620 124.228,370.549 125.484 M321.086 126.817 C 320.714 127.766,320.486 128.619,320.581 128.714 C 320.824 128.958,322.046 125.938,321.891 125.474 C 321.821 125.264,321.459 125.868,321.086 126.817 M258.084 177.161 C 210.112 225.252,206.418 228.854,203.660 230.230 C 202.967 230.576,202.400 230.930,202.400 231.017 C 202.400 231.331,203.838 230.641,205.600 229.479 C 208.201 227.764,309.531 126.553,307.937 127.261 C 307.862 127.294,285.428 149.749,258.084 177.161 M366.400 130.228 C 365.410 131.432,363.745 133.445,362.700 134.701 C 361.655 135.957,360.800 137.136,360.800 137.323 C 360.800 137.509,361.459 136.792,362.264 135.731 C 363.070 134.669,364.892 132.495,366.313 130.900 C 367.735 129.305,368.741 128.009,368.549 128.019 C 368.357 128.029,367.390 129.023,366.400 130.228 M319.386 130.500 L 318.752 131.800 319.567 130.800 C 320.352 129.837,320.608 129.200,320.210 129.200 C 320.106 129.200,319.735 129.785,319.386 130.500 M317.413 133.692 C 315.516 136.626,215.441 236.403,212.037 238.754 C 210.408 239.879,209.201 240.800,209.355 240.800 C 211.863 240.800,319.956 133.423,318.707 132.173 C 318.602 132.069,318.020 132.752,317.413 133.692 M154.400 140.496 C 152.090 142.482,149.462 144.758,148.560 145.554 C 147.658 146.349,145.822 147.900,144.481 149.000 C 143.139 150.100,142.033 151.169,142.021 151.375 C 142.009 151.581,142.495 151.298,143.100 150.745 C 143.705 150.192,146.180 148.048,148.600 145.980 C 151.020 143.912,153.090 142.123,153.200 142.004 C 153.310 141.885,154.030 141.271,154.800 140.641 C 157.425 138.492,158.884 137.151,158.742 137.017 C 158.664 136.944,156.710 138.509,154.400 140.496 M360.244 138.967 C 360.111 139.499,360.151 140.339,360.334 140.833 C 360.592 141.530,360.667 141.313,360.667 139.866 C 360.667 137.752,360.590 137.589,360.244 138.967 M134.359 157.745 C 130.487 161.075,126.347 164.636,125.159 165.658 C 123.972 166.679,120.120 169.989,116.600 173.012 C 107.576 180.763,107.499 180.832,107.670 181.003 C 107.755 181.088,108.449 180.582,109.213 179.879 C 109.976 179.175,111.861 177.541,113.401 176.247 C 114.940 174.953,117.280 172.954,118.600 171.806 C 119.920 170.657,123.700 167.401,127.000 164.569 C 130.300 161.738,133.200 159.237,133.444 159.011 C 134.303 158.217,141.117 152.433,141.567 152.117 C 141.658 152.053,141.658 151.930,141.567 151.845 C 141.475 151.760,138.232 154.415,134.359 157.745 M345.700 155.196 C 344.985 155.632,344.400 156.078,344.400 156.188 C 344.400 156.298,344.985 156.032,345.700 155.596 C 347.357 154.585,349.213 154.586,351.200 155.600 C 352.062 156.040,353.000 156.398,353.284 156.396 C 353.568 156.394,352.837 155.944,351.660 155.396 C 349.079 154.195,347.433 154.139,345.700 155.196 M342.834 157.753 L 341.869 159.000 343.013 157.912 C 343.643 157.314,344.077 156.753,343.979 156.665 C 343.880 156.577,343.365 157.067,342.834 157.753 M338.000 163.272 C 332.206 170.050,331.924 170.400,332.267 170.388 C 332.450 170.381,333.179 169.616,333.886 168.688 C 334.594 167.759,335.674 166.455,336.286 165.789 C 338.677 163.189,341.684 159.552,341.546 159.426 C 341.466 159.354,339.870 161.084,338.000 163.272 M330.998 171.368 C 330.779 171.681,329.818 172.851,328.863 173.968 C 327.907 175.086,327.210 176.000,327.314 176.000 C 327.418 176.000,328.530 174.830,329.785 173.400 C 331.040 171.970,331.917 170.800,331.732 170.800 C 331.547 170.800,331.217 171.056,330.998 171.368 M320.800 183.243 C 317.610 186.981,314.394 190.795,313.654 191.719 L 312.308 193.400 313.817 191.800 C 316.074 189.406,317.923 187.284,323.200 181.028 C 323.750 180.376,324.898 179.068,325.751 178.122 C 326.604 177.175,327.144 176.411,326.951 176.424 C 326.758 176.438,323.990 179.506,320.800 183.243 M95.927 190.728 C 89.842 195.938,84.753 200.455,84.619 200.766 C 84.393 201.290,95.132 212.601,95.503 212.230 C 95.583 212.151,93.208 209.591,90.227 206.543 L 84.807 201.000 86.303 199.597 C 87.126 198.825,88.970 197.206,90.400 195.999 C 91.830 194.792,93.090 193.714,93.200 193.602 C 93.310 193.491,94.570 192.410,96.000 191.200 C 100.103 187.728,100.817 187.113,102.974 185.200 C 104.089 184.210,105.524 182.992,106.162 182.494 C 106.800 181.996,107.247 181.514,107.156 181.423 C 107.065 181.331,102.012 185.519,95.927 190.728 M309.645 196.236 C 308.460 197.659,307.560 198.882,307.645 198.953 C 307.730 199.024,308.850 197.848,310.134 196.341 C 311.418 194.833,312.318 193.611,312.134 193.624 C 311.950 193.637,310.830 194.812,309.645 196.236 M161.396 198.272 C 161.058 199.081,160.833 199.900,160.897 200.091 C 160.961 200.282,161.316 199.620,161.687 198.619 C 162.493 196.445,162.270 196.179,161.396 198.272 M306.586 199.797 C 306.374 200.104,304.786 202.031,303.057 204.078 C 301.328 206.125,300.698 206.973,301.657 205.961 C 302.616 204.950,303.922 203.510,304.559 202.761 C 305.196 202.013,306.082 200.996,306.527 200.502 C 306.972 200.007,307.254 199.521,307.154 199.421 C 307.054 199.320,306.798 199.490,306.586 199.797 M160.249 201.415 C 160.112 201.773,160.018 202.456,160.041 202.933 C 160.067 203.481,160.203 203.286,160.410 202.403 C 160.760 200.916,160.665 200.333,160.249 201.415 M159.443 204.633 C 158.570 206.907,159.523 219.712,160.644 220.761 C 160.784 220.892,160.800 220.640,160.678 220.200 C 159.774 216.930,159.532 214.394,159.658 209.498 C 159.736 206.474,159.774 204.000,159.743 204.000 C 159.711 204.000,159.576 204.285,159.443 204.633 M171.429 205.029 C 171.281 205.615,171.251 206.184,171.361 206.294 C 171.471 206.404,171.681 206.015,171.829 205.429 C 171.976 204.842,172.006 204.273,171.896 204.163 C 171.786 204.053,171.576 204.442,171.429 205.029 M170.948 210.800 C 170.948 213.110,171.014 214.055,171.095 212.900 C 171.176 211.745,171.176 209.855,171.095 208.700 C 171.014 207.545,170.948 208.490,170.948 210.800 M298.575 209.300 L 297.400 210.600 298.700 209.425 C 299.415 208.779,300.000 208.194,300.000 208.125 C 300.000 207.816,299.670 208.088,298.575 209.300 M74.568 209.094 C 74.131 209.482,72.609 210.769,71.187 211.953 C 68.497 214.191,66.400 216.348,66.400 216.876 C 66.400 217.044,67.165 216.351,68.100 215.336 C 69.035 214.321,71.075 212.448,72.633 211.174 L 75.466 208.858 83.229 216.629 C 92.597 226.006,93.970 226.792,97.606 224.859 C 100.230 223.465,101.706 219.636,100.404 217.600 C 100.144 217.193,100.090 217.644,100.236 219.000 C 100.710 223.395,96.740 226.368,92.526 224.774 C 91.907 224.540,87.792 220.757,83.382 216.368 C 75.556 208.580,75.344 208.405,74.568 209.094 M295.200 213.046 C 294.210 214.260,293.130 215.557,292.800 215.927 C 289.502 219.626,287.563 221.995,287.851 221.973 C 288.043 221.958,289.125 220.833,290.256 219.473 C 291.387 218.113,293.516 215.605,294.986 213.900 C 296.457 212.195,297.511 210.809,297.330 210.819 C 297.148 210.830,296.190 211.832,295.200 213.046 M96.000 212.634 C 96.000 212.852,96.921 213.923,98.047 215.015 C 99.173 216.107,99.908 216.640,99.679 216.200 C 99.138 215.160,96.000 212.117,96.000 212.634 M171.448 216.400 C 171.759 218.107,173.264 221.510,174.190 222.600 C 174.582 223.063,174.495 222.755,173.983 221.870 C 173.496 221.029,172.669 219.139,172.145 217.670 C 171.621 216.202,171.308 215.630,171.448 216.400 M65.867 217.867 C 65.298 218.436,65.624 222.077,66.372 223.516 C 66.813 224.362,91.527 249.358,123.872 281.672 C 186.126 343.864,181.538 339.588,185.053 338.685 C 185.464 338.579,185.119 338.472,184.287 338.446 C 180.934 338.344,181.682 339.052,123.496 280.885 C 62.806 220.215,65.662 223.275,66.098 219.405 C 66.311 217.516,66.299 217.434,65.867 217.867 M160.805 221.705 C 160.802 222.093,160.973 222.723,161.185 223.105 C 161.397 223.487,161.907 224.520,162.318 225.400 C 164.741 230.589,168.114 234.626,173.398 238.660 C 174.363 239.397,175.298 240.004,175.476 240.009 C 175.654 240.014,176.250 240.370,176.800 240.800 C 177.350 241.230,178.070 241.585,178.400 241.587 C 178.730 241.590,178.010 241.027,176.800 240.336 C 170.048 236.481,165.252 231.143,162.124 224.000 C 161.401 222.350,160.808 221.317,160.805 221.705 M286.173 223.700 C 283.613 226.513,282.620 227.712,283.059 227.464 C 283.311 227.321,284.454 226.123,285.598 224.802 C 287.782 222.281,288.208 221.465,286.173 223.700 M175.215 224.200 C 177.183 226.953,185.258 233.158,183.797 230.795 C 183.663 230.578,183.371 230.400,183.148 230.400 C 182.393 230.400,179.008 227.841,176.821 225.616 C 175.623 224.397,174.900 223.760,175.215 224.200 M280.037 230.695 C 278.848 232.141,278.064 233.207,278.296 233.064 C 278.997 232.631,282.905 227.998,282.540 228.033 C 282.353 228.051,281.227 229.249,280.037 230.695 M199.000 232.045 C 197.385 232.646,197.270 232.743,198.400 232.548 C 199.955 232.279,202.545 231.255,201.600 231.283 C 201.270 231.292,200.100 231.635,199.000 232.045 M187.000 232.400 C 187.440 232.589,188.160 232.744,188.600 232.744 L 189.400 232.744 188.600 232.400 C 188.160 232.211,187.440 232.056,187.000 232.056 L 186.200 232.056 187.000 232.400 M111.731 233.562 C 109.176 234.743,107.836 237.357,108.274 240.306 C 108.475 241.659,112.604 245.913,151.925 285.282 C 193.701 327.108,195.336 328.799,194.852 329.704 C 194.311 330.714,193.046 332.180,189.849 335.500 C 188.737 336.655,188.027 337.600,188.272 337.600 C 188.856 337.600,195.600 329.805,195.600 329.130 C 195.600 328.843,176.092 309.077,152.248 285.204 C 104.999 237.898,107.849 241.031,108.831 237.474 C 109.567 234.806,111.304 233.600,114.412 233.600 L 116.477 233.600 121.638 238.668 C 127.817 244.735,128.426 244.920,122.700 238.991 C 116.861 232.945,115.028 232.038,111.731 233.562 M191.500 233.093 C 192.435 233.177,193.965 233.177,194.900 233.093 C 195.835 233.009,195.070 232.940,193.200 232.940 C 191.330 232.940,190.565 233.009,191.500 233.093 M275.066 236.459 C 273.782 237.967,272.882 239.188,273.066 239.173 C 273.454 239.142,277.757 234.011,277.543 233.836 C 277.464 233.771,276.350 234.952,275.066 236.459 M61.700 240.314 C 59.739 242.461,59.732 242.518,60.816 247.129 C 62.178 252.927,62.332 253.689,62.774 256.800 C 66.976 286.359,57.512 315.717,36.759 337.496 C 35.242 339.089,34.000 340.708,34.000 341.094 C 34.000 342.018,62.378 370.400,63.302 370.400 C 63.691 370.400,65.402 369.089,67.104 367.486 C 91.719 344.317,125.471 335.397,157.539 343.584 C 159.296 344.033,161.063 344.398,161.467 344.395 C 162.165 344.391,166.000 341.047,166.000 340.444 C 166.000 339.939,64.337 238.399,63.859 238.426 C 63.606 238.440,62.635 239.290,61.700 240.314 M107.829 282.700 C 131.685 306.625,154.391 329.392,158.288 333.294 L 165.374 340.388 163.806 341.994 C 162.256 343.582,158.400 344.442,158.400 343.200 C 158.400 342.980,157.781 342.800,157.024 342.800 C 156.267 342.800,155.536 342.620,155.400 342.400 C 155.264 342.180,154.364 342.000,153.400 342.000 C 152.436 342.000,151.536 341.820,151.400 341.600 C 151.264 341.380,150.119 341.200,148.856 341.200 C 147.593 341.200,146.389 341.034,146.180 340.831 C 145.861 340.521,139.765 340.074,134.400 339.966 C 130.982 339.898,121.764 340.521,121.420 340.844 C 121.211 341.040,120.007 341.200,118.744 341.200 C 117.481 341.200,116.336 341.380,116.200 341.600 C 116.064 341.820,115.254 342.000,114.400 342.000 C 113.546 342.000,112.736 342.180,112.600 342.400 C 112.464 342.620,111.643 342.800,110.776 342.800 C 109.909 342.800,109.200 342.980,109.200 343.200 C 109.200 343.420,108.758 343.600,108.219 343.600 C 107.679 343.600,106.824 343.761,106.319 343.958 C 105.813 344.155,104.590 344.548,103.600 344.830 C 102.610 345.113,101.620 345.471,101.400 345.626 C 101.180 345.781,100.370 346.039,99.600 346.200 C 98.830 346.361,98.020 346.622,97.800 346.781 C 97.580 346.939,96.320 347.495,95.000 348.014 C 93.680 348.534,91.520 349.559,90.200 350.291 C 88.880 351.023,87.125 351.930,86.300 352.306 C 85.475 352.681,84.800 353.126,84.800 353.294 C 84.800 353.462,84.607 353.600,84.372 353.600 C 84.137 353.600,83.159 354.140,82.200 354.800 C 81.241 355.460,80.303 356.000,80.116 356.000 C 79.929 356.000,79.517 356.360,79.200 356.800 C 78.883 357.240,78.427 357.600,78.187 357.600 C 77.947 357.600,77.402 357.920,76.975 358.311 C 76.549 358.702,75.570 359.458,74.800 359.992 C 74.030 360.525,73.130 361.255,72.800 361.613 C 72.470 361.971,71.890 362.434,71.511 362.642 C 71.132 362.849,69.108 364.602,67.014 366.535 L 63.205 370.052 56.028 362.926 C 52.080 359.007,45.809 352.830,42.092 349.199 C 33.313 340.624,33.683 341.510,37.282 337.691 C 40.251 334.541,43.329 330.965,44.384 329.443 C 44.705 328.979,45.200 328.362,45.484 328.071 C 45.768 327.781,46.000 327.403,46.000 327.233 C 46.000 327.062,46.376 326.490,46.836 325.961 C 48.398 324.164,52.078 317.886,54.294 313.235 C 56.371 308.876,56.715 308.106,57.700 305.600 C 57.916 305.050,58.252 304.287,58.447 303.905 C 58.641 303.523,58.800 302.859,58.800 302.429 C 58.800 301.999,58.980 301.536,59.200 301.400 C 59.420 301.264,59.600 300.724,59.600 300.200 C 59.600 299.676,59.780 299.136,60.000 299.000 C 60.220 298.864,60.400 298.234,60.400 297.600 C 60.400 296.966,60.560 296.348,60.756 296.227 C 60.951 296.106,61.212 295.421,61.334 294.704 C 61.456 293.987,61.755 292.500,61.999 291.400 C 64.598 279.680,64.924 265.148,62.843 253.800 C 62.641 252.700,62.355 251.080,62.206 250.200 C 62.058 249.320,61.784 248.240,61.598 247.800 C 61.281 247.049,61.071 246.201,60.526 243.468 C 60.286 242.264,62.714 239.200,63.909 239.200 C 64.209 239.200,83.974 258.775,107.829 282.700 M270.270 242.099 C 269.057 243.473,268.139 244.673,268.232 244.765 C 268.324 244.858,268.453 244.858,268.517 244.767 C 268.582 244.675,269.589 243.475,270.757 242.100 C 273.512 238.855,273.135 238.853,270.270 242.099 M179.371 241.953 C 179.551 242.244,183.387 243.518,186.646 244.370 C 190.761 245.445,203.295 244.343,204.980 242.757 C 205.189 242.561,205.673 242.400,206.056 242.400 C 206.439 242.400,206.857 242.232,206.984 242.026 C 207.222 241.640,205.966 241.935,203.892 242.750 C 197.988 245.073,188.474 244.956,181.494 242.476 C 180.225 242.025,179.270 241.790,179.371 241.953 M127.200 243.817 C 127.200 244.028,131.340 248.336,136.400 253.391 C 141.460 258.446,145.600 262.438,145.600 262.263 C 145.600 262.087,141.460 257.778,136.400 252.688 C 131.340 247.598,127.200 243.605,127.200 243.817 M265.355 247.900 C 264.066 249.385,262.919 250.690,262.806 250.800 C 262.024 251.560,258.400 255.984,258.400 256.178 C 258.400 256.311,260.227 254.300,262.461 251.710 C 264.695 249.119,266.886 246.595,267.331 246.100 C 267.776 245.605,268.040 245.200,267.919 245.200 C 267.797 245.200,266.643 246.415,265.355 247.900 M257.591 256.633 C 257.586 256.835,257.001 257.646,256.291 258.436 C 252.034 263.172,243.348 273.470,244.166 272.811 C 244.568 272.486,246.268 270.596,247.944 268.611 C 249.620 266.625,251.323 264.640,251.728 264.200 C 254.556 261.131,258.065 256.732,257.854 256.521 C 257.714 256.381,257.596 256.432,257.591 256.633 M146.000 262.606 C 146.000 263.119,155.906 273.028,156.162 272.772 C 156.266 272.667,154.022 270.246,151.176 267.391 C 148.329 264.536,146.000 262.383,146.000 262.606 M166.385 283.385 C 171.983 288.986,176.646 293.488,176.746 293.387 C 176.973 293.160,156.991 273.200,156.536 273.200 C 156.355 273.200,160.786 277.783,166.385 283.385 M242.798 273.900 C 242.797 274.065,242.296 274.740,241.684 275.400 C 238.842 278.468,231.195 287.598,231.480 287.584 C 231.656 287.575,232.475 286.720,233.301 285.684 C 234.126 284.648,235.355 283.170,236.032 282.400 C 236.709 281.630,237.654 280.548,238.132 279.996 C 238.609 279.443,240.057 277.778,241.349 276.296 C 242.641 274.813,243.496 273.600,243.249 273.600 C 243.002 273.600,242.799 273.735,242.798 273.900 M229.968 289.100 C 227.609 291.743,227.074 292.400,227.282 292.400 C 227.403 292.400,228.349 291.410,229.382 290.200 C 231.296 287.960,231.755 287.098,229.968 289.100 M226.197 293.340 C 225.975 293.593,224.805 294.966,223.597 296.391 C 222.388 297.816,220.825 299.611,220.121 300.379 C 219.418 301.147,218.923 301.856,219.021 301.955 C 219.120 302.053,219.255 302.058,219.323 301.967 C 219.391 301.875,221.122 299.856,223.169 297.479 C 225.217 295.103,226.826 293.096,226.746 293.020 C 226.666 292.943,226.418 293.088,226.197 293.340 M177.200 293.894 C 177.200 294.371,188.767 305.766,189.008 305.526 C 189.112 305.422,186.497 302.682,183.198 299.438 C 179.899 296.194,177.200 293.699,177.200 293.894 M216.174 305.100 C 213.148 308.617,212.206 309.868,214.122 307.824 C 216.290 305.511,218.908 302.400,218.686 302.400 C 218.582 302.400,217.452 303.615,216.174 305.100 M211.397 310.515 C 208.322 314.211,206.348 316.500,205.029 317.904 L 203.426 319.607 200.513 316.714 C 198.911 315.122,197.600 313.959,197.600 314.129 C 197.600 314.599,203.236 320.057,203.580 319.920 C 204.078 319.721,212.456 309.999,212.116 310.015 C 211.942 310.024,211.618 310.249,211.397 310.515 M27.988 357.900 L 25.400 360.600 28.109 358.002 L 30.819 355.404 39.855 364.466 C 45.007 369.633,48.776 373.715,48.622 373.964 C 48.474 374.204,48.543 374.400,48.776 374.400 C 49.009 374.400,49.200 374.174,49.200 373.897 C 49.200 373.429,31.246 355.200,30.785 355.200 C 30.671 355.200,29.412 356.415,27.988 357.900 M18.584 367.175 C 15.073 370.682,12.158 373.877,12.107 374.275 C 12.041 374.794,12.082 374.830,12.251 374.400 C 12.382 374.070,15.392 370.875,18.940 367.300 C 22.488 363.725,25.296 360.800,25.179 360.800 C 25.063 360.800,22.095 363.669,18.584 367.175 M13.600 375.266 C 15.138 375.905,16.939 376.406,16.647 376.114 C 16.317 375.783,13.535 374.806,13.000 374.831 C 12.780 374.842,13.050 375.038,13.600 375.266 M44.486 378.224 C 43.983 378.761,43.727 379.200,43.916 379.200 C 44.106 379.200,44.683 378.750,45.200 378.200 C 45.717 377.650,45.973 377.211,45.770 377.224 C 45.566 377.238,44.989 377.688,44.486 378.224 M22.626 378.565 C 24.644 379.444,25.926 379.659,24.200 378.829 C 23.320 378.406,22.330 378.053,22.000 378.045 C 21.670 378.038,21.952 378.272,22.626 378.565 " stroke="none" fill="#6c8d96" fill-rule="evenodd"></path></g></svg>